# xmcd CD database file
#
# Track frame offsets:
#	150
#	15465
#	59275
#	73425
#	89052
#	115192
#	148195
#	167755
#	192550
#	208210
#	233475
#	265020
#
# Disc length: 4097 seconds
#
# Revision: 0
# Processed by: cddbd v1.5.2PL0 Copyright (c) Steve Scherf et al.
# Submitted via: CDex 1.70beta2
#
DISCID=b50fff0c
DTITLE=Clayton-Hamilton Jazz Orchestra, The - The Best Of The Clayton-Hamilton Jazz Orchestra
DYEAR=2004
DGENRE=Jazz
TTITLE0=Georgia On My Mind
TTITLE1=I Be Serious 'Bout Dem Blues
TTITLE2=Heart and Soul
TTITLE3=Back Home Again In Indiana
TTITLE4=Emily
TTITLE5=15 Minutes Late
TTITLE6=Take The "A" Train
TTITLE7=Brush This
TTITLE8=Come Sunday
TTITLE9=Blues Brothers' Blues
TTITLE10=Yellow Flowers After
TTITLE11=Shout Me Out
EXTD=YEAR: 2004
EXTT0=
EXTT1=
EXTT2=
EXTT3=
EXTT4=
EXTT5=
EXTT6=
EXTT7=
EXTT8=
EXTT9=
EXTT10=
EXTT11=
PLAYORDER=
